<svg version="1.1" xmlns="http://www.w3.org/2000/svg" viewBox="0 0 1488.471923828125 575.9030555923098" width="1488.471923828125" height="575.9030555923098">
  <!-- svg-source:excalidraw -->
  
  <defs>
    <style class="style-fonts">
      @font-face {
        font-family: "Virgil";
        src: url("https://excalidraw.com/Virgil.woff2");
      }
      @font-face {
        font-family: "Cascadia";
        src: url("https://excalidraw.com/Cascadia.woff2");
      }
      @font-face {
        font-family: "Assistant";
        src: url("https://excalidraw.com/Assistant-Regular.woff2");
      }
    </style>
    
  </defs>
  <rect x="0" y="0" width="1488.471923828125" height="575.9030555923098" fill="#ffffff"></rect><g transform="translate(602 81.18636257877574) rotate(0 106.54194641113281 67.5)"><text x="0" y="0" font-family="Virgil, Segoe UI Emoji" font-size="36px" fill="#1e1e1e" text-anchor="start" style="white-space: pre;" direction="ltr" dominant-baseline="text-before-edge">Development</text><text x="0" y="45" font-family="Virgil, Segoe UI Emoji" font-size="36px" fill="#1e1e1e" text-anchor="start" style="white-space: pre;" direction="ltr" dominant-baseline="text-before-edge">devops</text><text x="0" y="90" font-family="Virgil, Segoe UI Emoji" font-size="36px" fill="#1e1e1e" text-anchor="start" style="white-space: pre;" direction="ltr" dominant-baseline="text-before-edge">security</text></g><g stroke-linecap="round"><g transform="translate(570 29.186362578775743) rotate(0 1 120)"><path d="M0.98 0.11 C1.29 40.35, 1.66 201.03, 1.84 240.94 M0.04 -0.88 C0.17 39.08, 0.6 199.06, 0.81 239.31" stroke="#1e1e1e" stroke-width="2" fill="none"></path></g></g><mask></mask><g stroke-linecap="round"><g transform="translate(550 29.186362578775743) rotate(0 0 131)"><path d="M-0.88 -1.13 C-0.78 42.75, 0.84 218.4, 0.86 262.16 M0.86 0.89 C0.85 45.08, 0.22 220.19, 0.37 263.78" stroke="#1e1e1e" stroke-width="2" fill="none"></path></g></g><mask></mask><g transform="translate(88 157.18636257877574) rotate(0 185.1119384765625 22.5)"><text x="0" y="0" font-family="Virgil, Segoe UI Emoji" font-size="36px" fill="#1e1e1e" text-anchor="start" style="white-space: pre;" direction="ltr" dominant-baseline="text-before-edge">Social media Network</text></g><g stroke-linecap="round"><g transform="translate(33.99999953333372 321.18636257877574) rotate(0 461.00000023333314 0)"><path d="M0.36 0.26 C153.92 0.35, 768.77 -0.09, 922.22 0.01 M-0.91 -0.65 C152.44 -0.3, 767.33 1.62, 921.39 1.55" stroke="#1e1e1e" stroke-width="2" fill="none"></path></g></g><mask></mask><g stroke-linecap="round"><g transform="translate(40 349.18636257877574) rotate(0 458 0)"><path d="M0.51 -1.03 C153 -1.15, 763.17 -1.06, 915.6 -0.99 M-0.69 1.04 C151.56 1.07, 761.41 0.13, 914.44 0.02" stroke="#1e1e1e" stroke-width="2" fill="none"></path></g></g><mask></mask><g transform="translate(10 437.18636257877574) rotate(0 102.31195068359375 22.5)"><text x="0" y="0" font-family="Virgil, Segoe UI Emoji" font-size="36px" fill="#1e1e1e" text-anchor="start" style="white-space: pre;" direction="ltr" dominant-baseline="text-before-edge">Freelancing </text></g><g stroke-linecap="round"><g transform="translate(246 381.18636257877574) rotate(0 0 92)"><path d="M1.11 0.8 C1.15 31.57, 0.24 154.04, -0.03 184.72 M0.23 0.18 C0.13 30.59, -0.7 152.5, -0.99 182.97" stroke="#1e1e1e" stroke-width="2" fill="none"></path></g></g><mask></mask><g stroke-linecap="round"><g transform="translate(264 393.18636257877574) rotate(0 0 85)"><path d="M0.67 -0.31 C0.75 28.18, -0.16 142.44, -0.21 170.87 M-0.44 -1.51 C-0.48 26.66, -1.31 140.33, -1.27 169.2" stroke="#1e1e1e" stroke-width="2" fill="none"></path></g></g><mask></mask><g transform="translate(310 485.18636257877574) rotate(0 178.9739227294922 22.5)"><text x="0" y="0" font-family="Virgil, Segoe UI Emoji" font-size="36px" fill="#1e1e1e" text-anchor="start" style="white-space: pre;" direction="ltr" dominant-baseline="text-before-edge">Remote Development</text></g><g stroke-linecap="round"><g transform="translate(708.5419465333334 381.18636257877574) rotate(0 0.7290267333332849 89)"><path d="M0.26 -0.21 C0.47 29.48, 0.95 148.55, 1.19 178.23 M-0.03 0.45 C0.28 30.03, 1.57 148.1, 1.85 177.73" stroke="#1e1e1e" stroke-width="2" fill="none"></path></g></g><mask></mask><g stroke-linecap="round"><g transform="translate(730 385.18636257877574) rotate(0 0 88)"><path d="M-0.35 -0.52 C-0.2 28.73, 0.55 146.41, 0.44 175.64 M1.67 1.82 C1.74 31.23, -0.23 148.03, -0.28 176.99" stroke="#1e1e1e" stroke-width="2" fill="none"></path></g></g><mask></mask><g transform="translate(812 471.18636257877574) rotate(0 83.82596588134766 22.5)"><text x="0" y="0" font-family="Virgil, Segoe UI Emoji" font-size="36px" fill="#1e1e1e" text-anchor="start" style="white-space: pre;" direction="ltr" dominant-baseline="text-before-edge">Business </text></g><g stroke-linecap="round"><g transform="translate(1136 11.186362578775743) rotate(0 2 270)"><path d="M0.56 -0.09 C1.04 90.09, 2.23 449.98, 2.95 539.99 M-0.6 -1.19 C0.23 89.3, 4.25 451.11, 5.11 541.52" stroke="#1e1e1e" stroke-width="2" fill="none"></path></g></g><mask></mask><g stroke-linecap="round"><g transform="translate(1153.9999995333337 15.186362578775743) rotate(0 5.0000002333331395 262)"><path d="M-0.34 -0.26 C1.34 86.97, 8.37 436.35, 10.09 523.67 M0.12 0.37 C1.78 87.79, 8.26 436.7, 9.85 523.95" stroke="#1e1e1e" stroke-width="2" fill="none"></path></g></g><mask></mask><g transform="translate(1266 197.18636257877574) rotate(0 106.2359619140625 22.5)"><text x="0" y="0" font-family="Virgil, Segoe UI Emoji" font-size="36px" fill="#1e1e1e" text-anchor="start" style="white-space: pre;" direction="ltr" dominant-baseline="text-before-edge">Investment </text></g></svg>